<?xml version="1.0" encoding="UTF-8"?>
<svg width="24px" height="24px" viewBox="0 0 24 24" version="1.1" xmlns="http://www.w3.org/2000/svg" xmlns:xlink="http://www.w3.org/1999/xlink">
    <!-- Generator: Sketch 41.2 (35397) - http://www.bohemiancoding.com/sketch -->
    <title>calendar-icon-gradient-1</title>
    <desc>Created with Sketch.</desc>
    <defs>
        <linearGradient x1="0%" y1="0%" x2="100%" y2="100%" id="linearGradient-1">
            <stop stop-color="#7956EC" offset="0%"></stop>
            <stop stop-color="#2FB9F8" offset="100%"></stop>
        </linearGradient>
    </defs>
    <g id="AppStarter" stroke="none" stroke-width="1" fill="none" fill-rule="evenodd">
        <g id="Webflow-Assets" transform="translate(-643.000000, -2743.000000)" fill="url(#linearGradient-1)">
            <g id="Gradient-Icons-24" transform="translate(583.000000, 2743.000000)">
                <path d="M80.9895,24 L63.0105,24 C61.3526184,23.9983662 60.0074262,22.6578658 60,21 L60,6 C59.9999951,5.20252794 60.3175066,4.43787064 60.8823887,3.8749587 C61.4472708,3.31204676 62.2130328,2.99720885 63.0105,3 L66,3 L66,1.5 C66,0.671572875 66.6715729,0 67.5,0 C68.3284271,0 69,0.671572875 69,1.5 L69,3 L75,3 L75,1.5 C75,0.671572875 75.6715729,0 76.5,0 C77.3284271,0 78,0.671572875 78,1.5 L78,3 L80.9895,3 C82.6473816,3.00163382 83.9925738,4.3421342 84,6 L84,21 C84.0000049,21.7974721 83.6824934,22.5621294 83.1176113,23.1250413 C82.5527292,23.6879532 81.7869672,24.0027912 80.9895,24 L80.9895,24 Z M81,6 L80.9895,6 L78,6 L78,7.5 C78,8.32842712 77.3284271,9 76.5,9 C75.6715729,9 75,8.32842712 75,7.5 L75,6 L69,6 L69,7.5 C69,8.32842712 68.3284271,9 67.5,9 C66.6715729,9 66,8.32842712 66,7.5 L66,6 L63.0105,6 C63.0071857,5.99838749 63.0033143,5.99838749 63,6 L63,21 L63.0105,21 L80.9895,21 C80.9928143,21.0016125 80.9966857,21.0016125 81,21 L81,6 L81,6 Z M76.5,18 C75.6715729,18 75,17.3284271 75,16.5 C75,15.6715729 75.6715729,15 76.5,15 C77.3284271,15 78,15.6715729 78,16.5 C78,17.3284271 77.3284271,18 76.5,18 L76.5,18 Z M76.5,13.5 C75.6715729,13.5 75,12.8284271 75,12 C75,11.1715729 75.6715729,10.5 76.5,10.5 C77.3284271,10.5 78,11.1715729 78,12 C78,12.8284271 77.3284271,13.5 76.5,13.5 L76.5,13.5 Z M72,18 C71.1715729,18 70.5,17.3284271 70.5,16.5 C70.5,15.6715729 71.1715729,15 72,15 C72.8284271,15 73.5,15.6715729 73.5,16.5 C73.5,17.3284271 72.8284271,18 72,18 L72,18 Z M72,13.5 C71.1715729,13.5 70.5,12.8284271 70.5,12 C70.5,11.1715729 71.1715729,10.5 72,10.5 C72.8284271,10.5 73.5,11.1715729 73.5,12 C73.5,12.8284271 72.8284271,13.5 72,13.5 L72,13.5 Z M67.5,18 C66.6715729,18 66,17.3284271 66,16.5 C66,15.6715729 66.6715729,15 67.5,15 C68.3284271,15 69,15.6715729 69,16.5 C69,17.3284271 68.3284271,18 67.5,18 L67.5,18 Z M67.5,13.5 C66.6715729,13.5 66,12.8284271 66,12 C66,11.1715729 66.6715729,10.5 67.5,10.5 C68.3284271,10.5 69,11.1715729 69,12 C69,12.8284271 68.3284271,13.5 67.5,13.5 L67.5,13.5 Z" id="Calendar-Icon"></path>
            </g>
        </g>
    </g>
</svg>