<?xml version="1.0" encoding="UTF-8"?>
<svg width="24px" height="24px" viewBox="0 0 24 24" version="1.1" xmlns="http://www.w3.org/2000/svg" xmlns:xlink="http://www.w3.org/1999/xlink">
    <!-- Generator: Sketch 41.2 (35397) - http://www.bohemiancoding.com/sketch -->
    <title>clock-icon-gradient-1</title>
    <desc>Created with Sketch.</desc>
    <defs>
        <linearGradient x1="0%" y1="0%" x2="100%" y2="100%" id="linearGradient-1">
            <stop stop-color="#7956EC" offset="0%"></stop>
            <stop stop-color="#2FB9F8" offset="100%"></stop>
        </linearGradient>
    </defs>
    <g id="AppStarter" stroke="none" stroke-width="1" fill="none" fill-rule="evenodd">
        <g id="Webflow-Assets" transform="translate(-583.000000, -2843.000000)" fill="url(#linearGradient-1)">
            <g id="Gradient-Icons-24" transform="translate(583.000000, 2743.000000)">
                <path d="M12,124 C5.372583,124 0,118.627417 0,112 C0,105.372583 5.372583,100 12,100 C18.627417,100 24,105.372583 24,112 C24,118.627417 18.627417,124 12,124 L12,124 L12,124 L12,124 Z M12,103 C7.02943725,103 3,107.029437 3,112 C3,116.970563 7.02943725,121 12,121 C16.9705627,121 21,116.970563 21,112 C21,107.029437 16.9705627,103 12,103 L12,103 L12,103 L12,103 Z M18,113.5 L12,113.5 C11.1768164,113.500033 10.5074087,112.83665 10.5,112.0135 L10.5,105.9865 C10.5,105.158073 11.1715729,104.4865 12,104.4865 C12.8284271,104.4865 13.5,105.158073 13.5,105.9865 L13.5,110.5 L18,110.5 C18.8284271,110.5 19.5,111.171573 19.5,112 C19.5,112.828427 18.8284271,113.5 18,113.5 L18,113.5 L18,113.5 L18,113.5 Z" id="Clock-Icon"></path>
            </g>
        </g>
    </g>
</svg>