<svg id="Group_388" data-name="Group 388" xmlns="http://www.w3.org/2000/svg" xmlns:xlink="http://www.w3.org/1999/xlink" viewBox="-8326 5330 70 70">
  <defs>
    <style>
      .cls-1 {
        fill: url(#linear-gradient);
      }

      .cls-2 {
        fill: #fff;
      }
    </style>
    <linearGradient id="linear-gradient" x2="1" y2="1" gradientUnits="objectBoundingBox">
      <stop offset="0" stop-color="#7956ec"/>
      <stop offset="1" stop-color="#2fb9f8"/>
    </linearGradient>
  </defs>
  <rect id="Base" class="cls-1" width="70" height="70" transform="translate(-8326 5330)"/>
  <path id="Path_612" data-name="Path 612" class="cls-2" d="M12.318-17.977a.459.459,0,0,1,.145.334.459.459,0,0,1-.145.334l-2.046,2.046a1.343,1.343,0,0,1-.987.406h-19.5a.892.892,0,0,1-.653-.276.892.892,0,0,1-.276-.653V-19.5a.892.892,0,0,1,.276-.653.892.892,0,0,1,.653-.276h8.357v-.929a.892.892,0,0,1,.276-.653.892.892,0,0,1,.653-.276H.929a.892.892,0,0,1,.653.276.892.892,0,0,1,.276.653v.929H9.286a1.343,1.343,0,0,1,.987.406ZM-1.857-4.643H1.857V2.786a.892.892,0,0,1-.276.653.892.892,0,0,1-.653.276H-.929a.892.892,0,0,1-.653-.276.892.892,0,0,1-.276-.653Zm12.071-6.5a.892.892,0,0,1,.653.276.892.892,0,0,1,.276.653V-6.5a.892.892,0,0,1-.276.653.892.892,0,0,1-.653.276h-19.5a1.343,1.343,0,0,1-.987-.406l-2.046-2.046a.459.459,0,0,1-.145-.334.459.459,0,0,1,.145-.334l2.046-2.046a1.343,1.343,0,0,1,.987-.406h7.429v-2.786H1.857v2.786Z" transform="translate(-8291 5374)"/>
</svg>
