<svg id="Group_385" data-name="Group 385" xmlns="http://www.w3.org/2000/svg" xmlns:xlink="http://www.w3.org/1999/xlink" viewBox="-8649 5330 70 70">
  <defs>
    <style>
      .cls-1 {
        fill: url(#linear-gradient);
      }

      .cls-2 {
        fill: #fff;
      }
    </style>
    <linearGradient id="linear-gradient" x2="1" y2="1" gradientUnits="objectBoundingBox">
      <stop offset="0" stop-color="#009fc5"/>
      <stop offset="1" stop-color="#3cecb0"/>
    </linearGradient>
  </defs>
  <rect id="Base" class="cls-1" width="70" height="70" transform="translate(-8649 5330)"/>
  <path id="Path_615" data-name="Path 615" class="cls-2" d="M13.393-23.571a2.579,2.579,0,0,1,1.892.787,2.579,2.579,0,0,1,.787,1.892V-.536a2.579,2.579,0,0,1-.787,1.892,2.579,2.579,0,0,1-1.892.787H-13.393a2.579,2.579,0,0,1-1.892-.787,2.579,2.579,0,0,1-.787-1.892V-20.893a2.579,2.579,0,0,1,.787-1.892,2.579,2.579,0,0,1,1.892-.787Zm-26.786,2.143a.515.515,0,0,0-.377.159.515.515,0,0,0-.159.377v3.75H13.929v-3.75a.515.515,0,0,0-.159-.377.515.515,0,0,0-.377-.159ZM13.393,0a.515.515,0,0,0,.377-.159.515.515,0,0,0,.159-.377V-10.714H-13.929V-.536a.515.515,0,0,0,.159.377A.515.515,0,0,0-13.393,0ZM-11.786-2.143V-4.286H-7.5v2.143Zm6.429,0V-4.286H1.071v2.143Z" transform="translate(-8614 5376)"/>
</svg>
