<svg id="Group_389" data-name="Group 389" xmlns="http://www.w3.org/2000/svg" xmlns:xlink="http://www.w3.org/1999/xlink" viewBox="-8415 5330 70 70">
  <defs>
    <style>
      .cls-1 {
        fill: url(#linear-gradient);
      }

      .cls-2 {
        fill: #fff;
      }
    </style>
    <linearGradient id="linear-gradient" x2="1" y2="1" gradientUnits="objectBoundingBox">
      <stop offset="0" stop-color="#f33573"/>
      <stop offset="1" stop-color="#ffc066"/>
    </linearGradient>
  </defs>
  <g id="Group_387" data-name="Group 387" transform="translate(99)">
    <g id="_5a1951afb1b09d000193f7d4_lock-icon-big" data-name="5a1951afb1b09d000193f7d4_lock-icon-big" transform="translate(-8514 5330)">
      <g id="Webflow-Assets" transform="translate(-435 -2720)">
        <g id="Feature-Icons-_Big_" data-name="Feature-Icons-(Big)" transform="translate(235 2720)">
          <g id="lock-icon-big" transform="translate(200)">
            <rect id="Base" class="cls-1" width="70" height="70"/>
          </g>
        </g>
      </g>
    </g>
    <path id="Path_611" data-name="Path 611" class="cls-2" d="M13-1.857V3.714H-13V-1.857a3.706,3.706,0,0,0,1.233-.2,3.587,3.587,0,0,0,.856-.4q.276-.2.682-.544a3.749,3.749,0,0,1,.747-.551,1.8,1.8,0,0,1,.82-.16,1.712,1.712,0,0,1,.805.16A4.81,4.81,0,0,1-7.095-3q.421.363.682.551a3.47,3.47,0,0,0,.842.392,3.751,3.751,0,0,0,1.248.2,3.591,3.591,0,0,0,1.233-.21,3.884,3.884,0,0,0,.842-.392q.261-.181.7-.544A5.267,5.267,0,0,1-1.081-3.4a1.951,1.951,0,0,1,.45-.218A1.858,1.858,0,0,1,0-3.714a1.8,1.8,0,0,1,.82.16A3.749,3.749,0,0,1,1.567-3q.406.348.682.544a3.587,3.587,0,0,0,.856.4,3.706,3.706,0,0,0,1.233.2,3.706,3.706,0,0,0,1.233-.2,3.587,3.587,0,0,0,.856-.4q.276-.2.682-.544a3.749,3.749,0,0,1,.747-.551,1.8,1.8,0,0,1,.82-.16,1.767,1.767,0,0,1,.805.16A3.749,3.749,0,0,1,10.229-3q.406.348.682.544a3.587,3.587,0,0,0,.856.4A3.706,3.706,0,0,0,13-1.857ZM13-6.5v2.786a1.712,1.712,0,0,1-.805-.16,4.81,4.81,0,0,1-.762-.551q-.421-.363-.682-.551a3.47,3.47,0,0,0-.842-.392,3.706,3.706,0,0,0-1.233-.2,3.751,3.751,0,0,0-1.248.2,3.47,3.47,0,0,0-.842.392q-.261.189-.682.551-.319.276-.479.392a1.772,1.772,0,0,1-.45.218,1.921,1.921,0,0,1-.638.1,1.8,1.8,0,0,1-.82-.16,3.749,3.749,0,0,1-.747-.551q-.421-.363-.682-.551a3.47,3.47,0,0,0-.842-.392A3.751,3.751,0,0,0,0-5.571a3.591,3.591,0,0,0-1.233.21,3.883,3.883,0,0,0-.842.392q-.261.181-.7.544a5.267,5.267,0,0,1-.472.392,1.951,1.951,0,0,1-.45.218,1.858,1.858,0,0,1-.631.1,1.8,1.8,0,0,1-.82-.16,3.749,3.749,0,0,1-.747-.551q-.406-.348-.682-.544a3.588,3.588,0,0,0-.856-.4,3.706,3.706,0,0,0-1.233-.2,3.751,3.751,0,0,0-1.248.2,3.47,3.47,0,0,0-.842.392q-.261.189-.682.551a3.749,3.749,0,0,1-.747.551,1.8,1.8,0,0,1-.82.16V-6.5a2.686,2.686,0,0,1,.813-1.973,2.686,2.686,0,0,1,1.973-.812h.929v-6.5h3.714v6.5h3.714v-6.5H1.857v6.5H5.571v-6.5H9.286v6.5h.929a2.686,2.686,0,0,1,1.973.813A2.686,2.686,0,0,1,13-6.5ZM-5.571-19.036a2.546,2.546,0,0,1-.522,1.719,1.688,1.688,0,0,1-1.335.6,1.789,1.789,0,0,1-1.313-.544,1.789,1.789,0,0,1-.544-1.313,1.853,1.853,0,0,1,.138-.74,1.331,1.331,0,0,1,.341-.493q.2-.174.45-.406t.45-.457a1.789,1.789,0,0,0,.341-.646,3.123,3.123,0,0,0,.138-.972q.551,0,1.2,1.074A4.148,4.148,0,0,1-5.571-19.036Zm7.429,0a2.546,2.546,0,0,1-.522,1.719,1.688,1.688,0,0,1-1.335.6,1.789,1.789,0,0,1-1.313-.544,1.789,1.789,0,0,1-.544-1.313,1.853,1.853,0,0,1,.138-.74,1.331,1.331,0,0,1,.341-.493q.2-.174.45-.406t.45-.457a1.789,1.789,0,0,0,.341-.646A3.123,3.123,0,0,0,0-22.286q.551,0,1.2,1.074A4.148,4.148,0,0,1,1.857-19.036Zm7.429,0a2.546,2.546,0,0,1-.522,1.719,1.688,1.688,0,0,1-1.335.6,1.789,1.789,0,0,1-1.313-.544,1.789,1.789,0,0,1-.544-1.313,1.853,1.853,0,0,1,.138-.74A1.331,1.331,0,0,1,6.05-19.8q.2-.174.45-.406t.45-.457a1.789,1.789,0,0,0,.341-.646,3.123,3.123,0,0,0,.138-.972q.551,0,1.2,1.074A4.148,4.148,0,0,1,9.286-19.036Z" transform="translate(-8479 5372)"/>
  </g>
</svg>
