<?xml version="1.0" encoding="UTF-8"?>
<svg width="24px" height="24px" viewBox="0 0 24 24" version="1.1" xmlns="http://www.w3.org/2000/svg" xmlns:xlink="http://www.w3.org/1999/xlink">
    <!-- Generator: Sketch 41.2 (35397) - http://www.bohemiancoding.com/sketch -->
    <title>inbox-icon-gradient-1</title>
    <desc>Created with Sketch.</desc>
    <defs>
        <linearGradient x1="0%" y1="0%" x2="100%" y2="100%" id="linearGradient-1">
            <stop stop-color="#7956EC" offset="0%"></stop>
            <stop stop-color="#2FB9F8" offset="100%"></stop>
        </linearGradient>
    </defs>
    <g id="AppStarter" stroke="none" stroke-width="1" fill="none" fill-rule="evenodd">
        <g id="Webflow-Assets" transform="translate(-583.000000, -2793.000000)" fill="url(#linearGradient-1)">
            <g id="Gradient-Icons-24" transform="translate(583.000000, 2743.000000)">
                <path d="M20.9894997,71.9999993 L3.01050029,71.9999993 C1.35480872,72.005811 0.00744085042,70.6691845 3.92218466e-07,69.0134994 L3.92218466e-07,61.4999997 C-0.000116093694,61.338917 0.0257147379,61.1788671 0.0765003897,61.0259997 L2.8410003,52.7324999 C3.2079809,51.7055082 4.17450923,51.0147036 5.26500022,51 L18.7349998,51 C19.8247819,51.0168606 20.7902078,51.7068772 21.1589997,52.7324999 L23.9234996,61.0259997 C23.9742853,61.1788671 24.0001161,61.338917 23.9999996,61.4999997 L23.9999996,69.0134994 C23.9925591,70.6691845 22.6451913,72.005811 20.9894997,71.9999993 L20.9894997,71.9999993 Z M3.01050029,68.9999994 L20.9894997,68.9999994 C21.0014997,68.9999994 20.9999997,68.9999994 20.9999997,69.0134994 L20.9999997,62.9999996 L17.1854998,62.9999996 C16.1182176,64.8556623 14.1406951,65.9995653 12,65.9995653 C9.85930491,65.9995653 7.88178239,64.8556623 6.81450017,62.9999996 L3.00000029,62.9999996 L3.00000029,69.0134994 C3.00000029,68.9999994 3.00000029,68.9999994 3.01050029,68.9999994 L3.01050029,68.9999994 Z M18.4184998,53.9999999 L5.58150021,53.9999999 L3.58050028,59.9999997 L7.75650014,59.9999997 C7.93751704,60.0030506 8.11645398,60.039143 8.28450012,60.1064997 C8.33612143,60.1281164 8.386234,60.1531727 8.43450012,60.1814997 C8.54275922,60.2358742 8.64358444,60.3039312 8.73450011,60.3839997 C8.77987719,60.4219087 8.82248581,60.4630134 8.8620001,60.5069997 C8.94482161,60.6012238 9.01538248,60.7055531 9.0720001,60.8174997 C9.09885902,60.8622039 9.12339168,60.9082653 9.14550009,60.9554997 C9.14550009,60.9719997 9.16500009,60.9839997 9.17100009,61.0004997 C9.59430586,62.199977 10.7280198,63.0021214 12,63.0021214 C13.2719802,63.0021214 14.4056941,62.199977 14.8289999,61.0004997 C14.8289999,60.9839997 14.8469999,60.9719997 14.8544999,60.9554997 C14.8766083,60.9082653 14.901141,60.8622039 14.9279999,60.8174997 C14.9846175,60.7055531 15.0551784,60.6012238 15.1379999,60.5069997 C15.1775142,60.4630134 15.2201228,60.4219087 15.2654999,60.3839997 C15.3564156,60.3039312 15.4572408,60.2358742 15.5654999,60.1814997 C15.6140883,60.1537708 15.6641638,60.1287331 15.7154999,60.1064997 C15.883546,60.039143 16.062483,60.0030506 16.2434999,59.9999997 L20.4194997,59.9999997 L18.4184998,53.9999999 Z" id="Inbox-Icon"></path>
            </g>
        </g>
    </g>
</svg>