<?xml version="1.0" encoding="UTF-8"?>
<svg width="24px" height="24px" viewBox="0 0 24 24" version="1.1" xmlns="http://www.w3.org/2000/svg" xmlns:xlink="http://www.w3.org/1999/xlink">
    <!-- Generator: Sketch 41.2 (35397) - http://www.bohemiancoding.com/sketch -->
    <title>inbox-icon-gradient-4</title>
    <desc>Created with Sketch.</desc>
    <defs>
        <linearGradient x1="0%" y1="0%" x2="100%" y2="100%" id="linearGradient-1">
            <stop stop-color="#F33573" offset="0%"></stop>
            <stop stop-color="#FFC066" offset="100%"></stop>
        </linearGradient>
    </defs>
    <g id="Webflow-Assets" stroke="none" stroke-width="1" fill="none" fill-rule="evenodd">
        <g id="Assets" transform="translate(-861.000000, -703.000000)" fill="url(#linearGradient-1)">
            <g id="Small-Icons-Color" transform="translate(681.000000, 703.000000)">
                <path d="M200.9895,21.9999993 L183.0105,21.9999993 C181.354809,22.005811 180.007441,20.6691845 180,19.0134994 L180,11.4999997 C179.999884,11.338917 180.025715,11.1788671 180.0765,11.0259997 L182.841,2.73249994 C183.207981,1.70550821 184.174509,1.01470362 185.265,1 L198.735,1 C199.824782,1.01686057 200.790208,1.70687722 201.159,2.73249994 L203.9235,11.0259997 C203.974285,11.1788671 204.000116,11.338917 204,11.4999997 L204,19.0134994 C203.992559,20.6691845 202.645191,22.005811 200.9895,21.9999993 L200.9895,21.9999993 Z M183.0105,18.9999994 L200.9895,18.9999994 C201.0015,18.9999994 201,18.9999994 201,19.0134994 L201,12.9999996 L197.1855,12.9999996 C196.118218,14.8556623 194.140695,15.9995653 192,15.9995653 C189.859305,15.9995653 187.881782,14.8556623 186.8145,12.9999996 L183,12.9999996 L183,19.0134994 C183,18.9999994 183,18.9999994 183.0105,18.9999994 L183.0105,18.9999994 Z M198.4185,3.9999999 L185.5815,3.9999999 L183.5805,9.99999971 L187.7565,9.99999971 C187.937517,10.0030506 188.116454,10.039143 188.2845,10.1064997 C188.336121,10.1281164 188.386234,10.1531727 188.4345,10.1814997 C188.542759,10.2358742 188.643584,10.3039312 188.7345,10.3839997 C188.779877,10.4219087 188.822486,10.4630134 188.862,10.5069997 C188.944822,10.6012238 189.015382,10.7055531 189.072,10.8174997 C189.098859,10.8622039 189.123392,10.9082653 189.1455,10.9554997 C189.1455,10.9719997 189.165,10.9839997 189.171,11.0004997 C189.594306,12.199977 190.72802,13.0021214 192,13.0021214 C193.27198,13.0021214 194.405694,12.199977 194.829,11.0004997 C194.829,10.9839997 194.847,10.9719997 194.8545,10.9554997 C194.876608,10.9082653 194.901141,10.8622039 194.928,10.8174997 C194.984618,10.7055531 195.055178,10.6012238 195.138,10.5069997 C195.177514,10.4630134 195.220123,10.4219087 195.2655,10.3839997 C195.356416,10.3039312 195.457241,10.2358742 195.5655,10.1814997 C195.614088,10.1537708 195.664164,10.1287331 195.7155,10.1064997 C195.883546,10.039143 196.062483,10.0030506 196.2435,9.99999971 L200.4195,9.99999971 L198.4185,3.9999999 Z" id="Inbox-Icon"></path>
            </g>
        </g>
    </g>
</svg>