<?xml version="1.0" encoding="UTF-8"?>
<svg width="24px" height="24px" viewBox="0 0 24 24" version="1.1" xmlns="http://www.w3.org/2000/svg" xmlns:xlink="http://www.w3.org/1999/xlink">
    <!-- Generator: Sketch 41.2 (35397) - http://www.bohemiancoding.com/sketch -->
    <title>notification-icon-gradient-1</title>
    <desc>Created with Sketch.</desc>
    <defs>
        <linearGradient x1="0%" y1="0%" x2="100%" y2="100%" id="linearGradient-1">
            <stop stop-color="#7956EC" offset="0%"></stop>
            <stop stop-color="#2FB9F8" offset="100%"></stop>
        </linearGradient>
    </defs>
    <g id="AppStarter" stroke="none" stroke-width="1" fill="none" fill-rule="evenodd">
        <g id="Webflow-Assets" transform="translate(-703.000000, -2743.000000)" fill="url(#linearGradient-1)">
            <g id="Gradient-Icons-24" transform="translate(583.000000, 2743.000000)">
                <path d="M143.923543,19.9725 C143.718998,20.5890634 143.140959,21.0038345 142.491585,21 L134.994422,21 C134.994422,22.6568542 133.651784,24 131.995557,24 C130.339329,24 128.996692,22.6568542 128.996692,21 L121.499529,21 C120.854128,21 120.281136,20.5868549 120.077043,19.9743416 C119.872949,19.3618284 120.083549,18.6873874 120.59987,18.3 C122.115766,17.1706383 123.008683,15.3908039 123.007958,13.5 L123.007958,9 C123.007958,4.02943725 127.035871,0 132.004554,0 C136.973236,0 141.001149,4.02943725 141.001149,9 L141.001149,13.5 C140.995922,15.3897745 141.885857,17.1703187 143.400241,18.3 C143.91594,18.6869949 144.126649,19.3604305 143.923543,19.9725 L143.923543,19.9725 Z M138.24969,13.5075 L138.24969,9.0075 C138.12224,5.64849882 135.363203,2.99119454 132.003054,2.99119454 C128.642906,2.99119454 125.883868,5.64849882 125.756418,9.0075 L125.756418,13.5075 C125.756166,15.0931182 125.324382,16.6487489 124.507391,18.0075 L139.501716,18.0075 C138.683112,16.6492934 138.250242,15.0934838 138.24969,13.5075 L138.24969,13.5075 Z" id="Notifications-Icon"></path>
            </g>
        </g>
    </g>
</svg>