<?xml version="1.0" encoding="UTF-8"?>
<svg width="70px" height="70px" viewBox="0 0 70 70" version="1.1" xmlns="http://www.w3.org/2000/svg" xmlns:xlink="http://www.w3.org/1999/xlink">
    <!-- Generator: Sketch 41.2 (35397) - http://www.bohemiancoding.com/sketch -->
    <title>platform-apple-big</title>
    <desc>Created with Sketch.</desc>
    <defs>
        <linearGradient x1="0%" y1="0%" x2="100%" y2="100%" id="linearGradient-1">
            <stop stop-color="#7956EC" offset="0%"></stop>
            <stop stop-color="#2FB9F8" offset="100%"></stop>
        </linearGradient>
    </defs>
    <g id="Webflow-Assets" stroke="none" stroke-width="1" fill="none" fill-rule="evenodd">
        <g id="Assets" transform="translate(-675.000000, -600.000000)">
            <g id="Feature-Icons-(Big)" transform="translate(235.000000, 600.000000)">
                <g id="platform-apple-big" transform="translate(440.000000, 0.000000)">
                    <rect id="Base" fill="url(#linearGradient-1)" x="0" y="0" width="70" height="70"></rect>
                    <path d="M41.7045825,34.7631529 C41.6766389,31.7311162 44.24745,30.2560205 44.3650058,30.1873458 C42.909048,28.1148739 40.6523615,27.8317082 39.8593415,27.8091302 C37.9639947,27.614395 36.1254986,28.9163927 35.1599991,28.9163927 C34.1752281,28.9163927 32.688436,27.8279452 31.0860152,27.8599307 C29.0239703,27.8909754 27.0948985,29.0565645 26.036896,30.8665671 C23.8534411,34.5571287 25.4818783,39.9805515 27.5737939,42.9636692 C28.6202335,44.4246537 29.8430068,46.0559139 31.4435005,45.9985281 C33.0093056,45.9354979 33.594194,45.0239113 35.4837594,45.0239113 C37.3559805,45.0239113 37.9052167,45.9985281 39.5375083,45.9618389 C41.2179785,45.9354979 42.2759809,44.4942692 43.2858048,43.0201142 C44.4950881,41.3455795 44.9807286,39.696445 45,39.6117775 C44.9604935,39.598607 41.7363804,38.3972695 41.7045825,34.7631529 L41.7045825,34.7631529 Z M38.621151,25.8467261 C39.4633132,24.8184865 40.0395295,23.4195915 39.8795765,22 C38.6606575,22.052682 37.136286,22.8231561 36.2584716,23.8288177 C35.4818323,24.715004 34.7880602,26.1675217 34.9672846,27.5334905 C36.3365209,27.63321 37.742373,26.8589729 38.621151,25.8467261 L38.621151,25.8467261 Z" id="Apple-Logo" fill="#FFFFFF"></path>
                </g>
            </g>
        </g>
    </g>
</svg>