<?xml version="1.0" encoding="UTF-8"?>
<svg width="70px" height="70px" viewBox="0 0 70 70" version="1.1" xmlns="http://www.w3.org/2000/svg" xmlns:xlink="http://www.w3.org/1999/xlink">
    <!-- Generator: Sketch 41.2 (35397) - http://www.bohemiancoding.com/sketch -->
    <title>platform-android-big</title>
    <desc>Created with Sketch.</desc>
    <defs>
        <linearGradient x1="0%" y1="0%" x2="100%" y2="100%" id="linearGradient-1">
            <stop stop-color="#F33573" offset="0%"></stop>
            <stop stop-color="#FFC066" offset="100%"></stop>
        </linearGradient>
    </defs>
    <g id="Webflow-Assets" stroke="none" stroke-width="1" fill="none" fill-rule="evenodd">
        <g id="Assets" transform="translate(-675.000000, -700.000000)">
            <g id="Feature-Icons-(Big)" transform="translate(235.000000, 600.000000)">
                <g id="platform-android-big" transform="translate(440.000000, 100.000000)">
                    <rect id="Base" fill="url(#linearGradient-1)" x="0" y="0" width="70" height="70"></rect>
                    <path d="M43.6106796,38.9394233 C42.8474767,38.942015 42.2265119,38.3227003 42.223301,37.5557313 L42.223301,31.3376055 C42.223301,30.5670551 42.8448862,29.9424007 43.6116505,29.9424007 C44.3784147,29.9424007 45,30.5670551 45,31.3376055 L45,37.5557313 C44.9984587,37.9243986 44.8511924,38.277339 44.5906211,38.5368547 C44.3300497,38.7963705 43.9775346,38.9411868 43.6106796,38.9394233 L43.6106796,38.9394233 Z M41.5135922,41.3696165 C41.5130268,41.576763 41.4305466,41.7751879 41.2843184,41.9211865 C41.1380901,42.0671851 40.9401086,42.1487818 40.7339806,42.1480042 L39.0671845,42.1480042 L39.0671845,45.6047951 C39.0671845,46.3753455 38.4455992,47 37.678835,47 C36.9120707,47 36.2904854,46.3753455 36.2904854,45.6047951 L36.2904854,42.1480042 L33.7079612,42.1480042 L33.7079612,45.6047951 C33.7079612,46.3753455 33.0863759,47 32.3196117,47 C31.5528474,47 30.9312621,46.3753455 30.9312621,45.6047951 L30.9312621,42.1480042 L29.2656311,42.1480042 C29.0595365,42.1489897 28.861502,42.0676186 28.7151335,41.9218084 C28.5687651,41.7759981 28.4860648,41.5777051 28.4852427,41.3705922 L28.4852427,35.7519167 L28.4730097,35.7519167 L28.4730097,30.395891 L41.5266019,30.395891 L41.5266019,35.7519167 L41.5139806,35.7519167 L41.5139806,41.3698116 L41.5135922,41.3696165 Z M31.8390291,24.7344813 L30.7353398,23.1810231 C30.7242254,23.1224473 30.7552791,23.0640153 30.8099029,23.040722 C30.8506296,22.9969583 30.9160628,22.9873216 30.9675728,23.0175012 L32.1079612,24.6218892 C33.0342393,24.2839467 34.0147878,24.1213249 35,24.1422509 C35.9819165,24.1278714 36.9579905,24.2963818 37.878835,24.6392561 L39.0316505,23.0175012 C39.0832203,22.9872917 39.1487237,22.9969269 39.1895146,23.040722 C39.2442444,23.0638986 39.2753476,23.1224236 39.2640777,23.1810231 L38.1466019,24.7534092 C41.3403883,26.1825674 41.4724272,29.6297967 41.4724272,29.6297967 L28.5271845,29.6297967 C28.5271845,29.6297967 28.6217476,26.1515411 31.8390291,24.7344813 Z M37.8407767,27.5955294 C38.2668725,27.5920873 38.6098406,27.2427808 38.6075618,26.8145733 C38.6052829,26.3863658 38.2586166,26.0407658 37.8325085,26.0419039 C37.4064005,26.043042 37.0615672,26.3904891 37.0615534,26.8187027 C37.0635865,27.2493229 37.4122698,27.5969338 37.8407767,27.5955294 L37.8407767,27.5955294 Z M32.158835,27.5955294 C32.5849308,27.5920873 32.9278989,27.2427808 32.92562,26.8145733 C32.9233412,26.3863658 32.5766749,26.0407658 32.1505668,26.0419039 C31.7244587,26.043042 31.3796254,26.3904891 31.3796117,26.8187027 C31.3816448,27.2493229 31.7303281,27.5969338 32.158835,27.5955294 L32.158835,27.5955294 Z M26.3887379,38.9394233 C26.0219836,38.941031 25.6696182,38.7961458 25.409173,38.5366469 C25.1487278,38.277148 25.0015416,37.9242967 25,37.5557313 L25,31.3376055 C25,30.5670551 25.6215853,29.9424006 26.3883495,29.9424006 C27.1551138,29.9424006 27.776699,30.5670551 27.776699,31.3376055 L27.776699,37.5557313 C27.7734883,38.3229297 27.1521679,38.942339 26.3887379,38.9394233 Z" id="Android-Logo" fill="#FFFFFF"></path>
                </g>
            </g>
        </g>
    </g>
</svg>