<?xml version="1.0" encoding="UTF-8"?>
<svg width="70px" height="70px" viewBox="0 0 70 70" version="1.1" xmlns="http://www.w3.org/2000/svg" xmlns:xlink="http://www.w3.org/1999/xlink">
    <!-- Generator: Sketch 41.2 (35397) - http://www.bohemiancoding.com/sketch -->
    <title>platform-web-big</title>
    <desc>Created with Sketch.</desc>
    <defs>
        <linearGradient x1="0%" y1="0%" x2="100%" y2="100%" id="linearGradient-1">
            <stop stop-color="#009FC5" offset="0%"></stop>
            <stop stop-color="#3CECB0" offset="100%"></stop>
        </linearGradient>
    </defs>
    <g id="Webflow-Assets" stroke="none" stroke-width="1" fill="none" fill-rule="evenodd">
        <g id="Assets" transform="translate(-775.000000, -700.000000)">
            <g id="Feature-Icons-(Big)" transform="translate(235.000000, 600.000000)">
                <g id="platform-web-big" transform="translate(540.000000, 100.000000)">
                    <rect id="Base" fill="url(#linearGradient-1)" x="0" y="0" width="70" height="70"></rect>
                    <path d="M43.991,42.0000184 L36.506,42.0000184 C36.50598,42.4004557 36.6660726,42.7842775 36.9506298,43.0660173 C37.235187,43.3477571 37.6205827,43.5040228 38.021,43.5000184 L40.991,43.5000184 C41.5268984,43.4973389 42.0235184,43.7807613 42.2937881,44.2435232 C42.5640578,44.7062851 42.5669168,45.2780818 42.3012881,45.7435232 C42.0356594,46.2089646 41.5418984,46.4973389 41.006,46.5000184 L29.006,46.5000184 C28.1775729,46.5000184 27.506,45.8284455 27.506,45.0000184 C27.5109142,44.1736354 28.179617,43.5049326 29.006,43.5000184 L31.955,43.5000184 C32.3554173,43.5040228 32.740813,43.3477571 33.0253702,43.0660173 C33.3099274,42.7842775 33.47002,42.4004557 33.47,42.0000184 L26.0105,42.0000184 C24.3522787,41.9992058 23.0066063,40.6582267 23,39.0000184 L23,27.0000184 C22.9999951,26.2025463 23.3175066,25.437889 23.8823887,24.8749771 C24.4472708,24.3120652 25.2130328,23.9972272 26.0105,24.0000184 L43.985,24.0000184 C45.6456576,23.9966996 46.9950362,25.3393649 47,27.0000184 L47,39.0150184 C46.9917348,40.6695293 45.645524,42.0050026 43.991,42.0000184 L43.991,42.0000184 L43.991,42.0000184 Z M43.991,27.0000184 L26.006,27.0000184 C26.006,27.0000184 26.015,39.0000184 26.0165,39.0000184 L44.006,39.0000184 L43.991,27.0000184 L43.991,27.0000184 Z" id="Monitor-Icon" fill="#FFFFFF"></path>
                </g>
            </g>
        </g>
    </g>
</svg>