<?xml version="1.0" encoding="UTF-8"?>
<svg width="24px" height="24px" viewBox="0 0 24 24" version="1.1" xmlns="http://www.w3.org/2000/svg" xmlns:xlink="http://www.w3.org/1999/xlink">
    <!-- Generator: Sketch 41.2 (35397) - http://www.bohemiancoding.com/sketch -->
    <title>reload-icon-gradient-1</title>
    <desc>Created with Sketch.</desc>
    <defs>
        <linearGradient x1="0%" y1="0%" x2="100%" y2="100%" id="linearGradient-1">
            <stop stop-color="#7956EC" offset="0%"></stop>
            <stop stop-color="#2FB9F8" offset="100%"></stop>
        </linearGradient>
    </defs>
    <g id="AppStarter" stroke="none" stroke-width="1" fill="none" fill-rule="evenodd">
        <g id="Webflow-Assets" transform="translate(-583.000000, -2743.000000)" fill="url(#linearGradient-1)">
            <g id="Gradient-Icons-24" transform="translate(583.000000, 2743.000000)">
                <path d="M15.9628673,9 C15.4095513,9 15.2727393,8.68955273 15.6691395,8.29479536 L18.339,5.636 C16.703,4.008 14.444,3 11.947,3 C7.346,3 3.55,6.424 2.984,10.852 C2.984,10.852 2.811,12 1.506,12 C0.675,12 0.001,11.328 0.001,10.5 C0.001,10.387 0.014,10.277 0.038,10.17 C0.924,4.412 5.916,0 11.947,0 C15.276,0 18.289,1.343 20.47,3.515 L23.2856518,0.711312699 C23.6801754,0.318465543 24,0.446311399 24,0.997544646 L24,8.49033415 C24,8.77181483 23.7765628,9 23.5011488,9 L15.9628673,9 Z M8.03713266,15 C8.59044871,15 8.72726074,15.3104473 8.33086051,15.7052046 L5.661,18.364 C7.296,19.993 9.556,21 12.053,21 C16.654,21 20.45,17.576 21.016,13.148 C21.016,13.148 21.189,12 22.494,12 C23.325,12 23.999,12.672 23.999,13.5 C23.999,13.614 23.986,13.724 23.962,13.83 C23.076,19.588 18.084,24 12.053,24 C8.724,24 5.711,22.657 3.53,20.486 L0.714348173,23.2888897 C0.319824571,23.6816251 0,23.5536886 0,23.0024554 L0,15.5096658 C0,15.2281852 0.223437195,15 0.498851203,15 L8.03713266,15 Z" id="Reload-Icon"></path>
            </g>
        </g>
    </g>
</svg>