<?xml version="1.0" encoding="UTF-8"?>
<svg width="70px" height="70px" viewBox="0 0 70 70" version="1.1" xmlns="http://www.w3.org/2000/svg" xmlns:xlink="http://www.w3.org/1999/xlink">
    <!-- Generator: Sketch 41.2 (35397) - http://www.bohemiancoding.com/sketch -->
    <title>settings-icon-big</title>
    <desc>Created with Sketch.</desc>
    <defs>
        <linearGradient x1="0%" y1="0%" x2="100%" y2="100%" id="linearGradient-1">
            <stop stop-color="#7956EC" offset="0%"></stop>
            <stop stop-color="#2FB9F8" offset="100%"></stop>
        </linearGradient>
    </defs>
    <g id="AppStarter" stroke="none" stroke-width="1" fill="none" fill-rule="evenodd">
        <g id="Webflow-Assets" transform="translate(-435.000000, -2920.000000)">
            <g id="Feature-Icons-(Big)" transform="translate(235.000000, 2720.000000)">
                <g id="settings-icon-big" transform="translate(200.000000, 200.000000)">
                    <rect id="Base" fill="url(#linearGradient-1)" x="0" y="0" width="70" height="70"></rect>
                    <path d="M45.5,41 L42.5,41 C41.6715729,41 41,40.3284271 41,39.5 C41,38.6715729 41.6715729,38 42.5,38 L42.5,24.5 C42.5,23.6715729 43.1715729,23 44,23 C44.8284271,23 45.5,23.6715729 45.5,24.5 L45.5,38 C46.3284271,38 47,38.6715729 47,39.5 C47,40.3284271 46.3284271,41 45.5,41 L45.5,41 L45.5,41 Z M39.5,32 L39.5,45.5 C39.5,46.3284271 38.8284271,47 38,47 C37.1715729,47 36.5,46.3284271 36.5,45.5 L36.5,32 C35.6715729,32 35,31.3284271 35,30.5 C35,29.6715729 35.6715729,29 36.5,29 L39.5,29 C40.3284271,29 41,29.6715729 41,30.5 C41,31.3284271 40.3284271,32 39.5,32 L39.5,32 L39.5,32 Z M38,27.5 C37.1715729,27.5 36.5,26.8284271 36.5,26 L36.5,24.5 C36.5,23.6715729 37.1715729,23 38,23 C38.8284271,23 39.5,23.6715729 39.5,24.5 L39.5,26 C39.5,26.8284271 38.8284271,27.5 38,27.5 L38,27.5 L38,27.5 Z M33.5,41 L30.5,41 C29.6715729,41 29,40.3284271 29,39.5 C29,38.6715729 29.6715729,38 30.5,38 L30.5,24.5 C30.5,23.6715729 31.1715729,23 32,23 C32.8284271,23 33.5,23.6715729 33.5,24.5 L33.5,38 C34.3284271,38 35,38.6715729 35,39.5 C35,40.3284271 34.3284271,41 33.5,41 L33.5,41 L33.5,41 Z M27.5,32 L27.5,45.5 C27.5,46.3284271 26.8284271,47 26,47 C25.1715729,47 24.5,46.3284271 24.5,45.5 L24.5,32 C23.6715729,32 23,31.3284271 23,30.5 C23,29.6715729 23.6715729,29 24.5,29 L27.5,29 C28.3284271,29 29,29.6715729 29,30.5 C29,31.3284271 28.3284271,32 27.5,32 L27.5,32 L27.5,32 Z M26,27.5 C25.1715729,27.5 24.5,26.8284271 24.5,26 L24.5,24.5 C24.5,23.6715729 25.1715729,23 26,23 C26.8284271,23 27.5,23.6715729 27.5,24.5 L27.5,26 C27.5,26.8284271 26.8284271,27.5 26,27.5 L26,27.5 L26,27.5 Z M32,42.5 C32.8284271,42.5 33.5,43.1715729 33.5,44 L33.5,45.5 C33.5,46.3284271 32.8284271,47 32,47 C31.1715729,47 30.5,46.3284271 30.5,45.5 L30.5,44 C30.5,43.1715729 31.1715729,42.5 32,42.5 L32,42.5 L32,42.5 Z M44,42.5 C44.8284271,42.5 45.5,43.1715729 45.5,44 L45.5,45.5 C45.5,46.3284271 44.8284271,47 44,47 C43.1715729,47 42.5,46.3284271 42.5,45.5 L42.5,44 C42.5,43.1715729 43.1715729,42.5 44,42.5 L44,42.5 L44,42.5 Z" id="Settings-Icon" fill="#FFFFFF"></path>
                </g>
            </g>
        </g>
    </g>
</svg>