<?xml version="1.0" encoding="UTF-8"?>
<svg width="24px" height="24px" viewBox="0 0 24 24" version="1.1" xmlns="http://www.w3.org/2000/svg" xmlns:xlink="http://www.w3.org/1999/xlink">
    <!-- Generator: Sketch 41.2 (35397) - http://www.bohemiancoding.com/sketch -->
    <title>settings-icon-gradient-1</title>
    <desc>Created with Sketch.</desc>
    <defs>
        <linearGradient x1="0%" y1="0%" x2="100%" y2="100%" id="linearGradient-1">
            <stop stop-color="#7956EC" offset="0%"></stop>
            <stop stop-color="#2FB9F8" offset="100%"></stop>
        </linearGradient>
    </defs>
    <g id="AppStarter" stroke="none" stroke-width="1" fill="none" fill-rule="evenodd">
        <g id="Webflow-Assets" transform="translate(-703.000000, -2843.000000)" fill="url(#linearGradient-1)">
            <g id="Gradient-Icons-24" transform="translate(583.000000, 2743.000000)">
                <path d="M142.5,118 L139.5,118 C138.671573,118 138,117.328427 138,116.5 C138,115.671573 138.671573,115 139.5,115 L139.5,101.5 C139.5,100.671573 140.171573,100 141,100 C141.828427,100 142.5,100.671573 142.5,101.5 L142.5,115 C143.328427,115 144,115.671573 144,116.5 C144,117.328427 143.328427,118 142.5,118 L142.5,118 L142.5,118 Z M136.5,109 L136.5,122.5 C136.5,123.328427 135.828427,124 135,124 C134.171573,124 133.5,123.328427 133.5,122.5 L133.5,109 C132.671573,109 132,108.328427 132,107.5 C132,106.671573 132.671573,106 133.5,106 L136.5,106 C137.328427,106 138,106.671573 138,107.5 C138,108.328427 137.328427,109 136.5,109 L136.5,109 L136.5,109 Z M135,104.5 C134.171573,104.5 133.5,103.828427 133.5,103 L133.5,101.5 C133.5,100.671573 134.171573,100 135,100 C135.828427,100 136.5,100.671573 136.5,101.5 L136.5,103 C136.5,103.828427 135.828427,104.5 135,104.5 L135,104.5 L135,104.5 Z M130.5,118 L127.5,118 C126.671573,118 126,117.328427 126,116.5 C126,115.671573 126.671573,115 127.5,115 L127.5,101.5 C127.5,100.671573 128.171573,100 129,100 C129.828427,100 130.5,100.671573 130.5,101.5 L130.5,115 C131.328427,115 132,115.671573 132,116.5 C132,117.328427 131.328427,118 130.5,118 L130.5,118 L130.5,118 Z M124.5,109 L124.5,122.5 C124.5,123.328427 123.828427,124 123,124 C122.171573,124 121.5,123.328427 121.5,122.5 L121.5,109 C120.671573,109 120,108.328427 120,107.5 C120,106.671573 120.671573,106 121.5,106 L124.5,106 C125.328427,106 126,106.671573 126,107.5 C126,108.328427 125.328427,109 124.5,109 L124.5,109 L124.5,109 Z M123,104.5 C122.171573,104.5 121.5,103.828427 121.5,103 L121.5,101.5 C121.5,100.671573 122.171573,100 123,100 C123.828427,100 124.5,100.671573 124.5,101.5 L124.5,103 C124.5,103.828427 123.828427,104.5 123,104.5 L123,104.5 L123,104.5 Z M129,119.5 C129.828427,119.5 130.5,120.171573 130.5,121 L130.5,122.5 C130.5,123.328427 129.828427,124 129,124 C128.171573,124 127.5,123.328427 127.5,122.5 L127.5,121 C127.5,120.171573 128.171573,119.5 129,119.5 L129,119.5 L129,119.5 Z M141,119.5 C141.828427,119.5 142.5,120.171573 142.5,121 L142.5,122.5 C142.5,123.328427 141.828427,124 141,124 C140.171573,124 139.5,123.328427 139.5,122.5 L139.5,121 C139.5,120.171573 140.171573,119.5 141,119.5 L141,119.5 L141,119.5 Z" id="Settings-Icon"></path>
            </g>
        </g>
    </g>
</svg>