<?xml version="1.0" encoding="UTF-8"?>
<svg width="16px" height="16px" viewBox="0 0 16 16" version="1.1" xmlns="http://www.w3.org/2000/svg" xmlns:xlink="http://www.w3.org/1999/xlink">
    <!-- Generator: Sketch 41.2 (35397) - http://www.bohemiancoding.com/sketch -->
    <title>tab-inbox-icon</title>
    <desc>Created with Sketch.</desc>
    <defs></defs>
    <g id="AppStarter" stroke="none" stroke-width="1" fill="none" fill-rule="evenodd">
        <g id="Webflow-Assets" transform="translate(-481.000000, -2603.000000)" fill="#F8F9FA">
            <g id="Icons" transform="translate(235.000000, 2582.000000)">
                <g id="Tab-Icons" transform="translate(216.000000, 21.000000)">
                    <path d="M43.9929998,14.9999874 L32.0070002,14.9999874 C30.9032058,15.0038619 30.0049606,14.1127783 30.0000003,13.0089892 L30.0000003,7.99999371 C29.9999226,7.89260535 30.0171432,7.78590554 30.0510003,7.68399399 L31.8940002,2.15499896 C32.1386539,1.4703384 32.7830062,1.0098024 33.5100001,1 L42.4899999,1 C43.2165213,1.01124037 43.8601385,1.47125107 44.1059998,2.15499896 L45.9489997,7.68399399 C45.9828568,7.78590554 46.0000774,7.89260535 45.9999997,7.99999371 L45.9999997,13.0089892 C45.9950394,14.1127783 45.0967942,15.0038619 43.9929998,14.9999874 L43.9929998,14.9999874 Z M32.0070002,12.9999892 L43.9929998,12.9999892 C44.0009998,12.9999892 43.9999998,12.9999892 43.9999998,13.0089892 L43.9999998,8.99999281 L41.4569999,8.99999281 C40.7454784,10.2371002 39.4271301,10.9997015 38,10.9997015 C36.5728699,10.9997015 35.2545216,10.2371002 34.5430001,8.99999281 L32.0000002,8.99999281 L32.0000002,13.0089892 C32.0000002,12.9999892 32.0000002,12.9999892 32.0070002,12.9999892 L32.0070002,12.9999892 Z M42.2789999,2.9999982 L33.7210001,2.9999982 L32.3870002,6.99999461 L35.1710001,6.99999461 C35.291678,7.00202855 35.4109693,7.02609013 35.5230001,7.07099454 C35.5574143,7.08540564 35.5908227,7.10210981 35.6230001,7.1209945 C35.6951728,7.15724413 35.7623896,7.20261544 35.8230001,7.25599438 C35.8532515,7.28126699 35.8816572,7.30867016 35.9080001,7.3379943 C35.9632144,7.40081034 36.010255,7.47036313 36.0480001,7.54499412 C36.065906,7.57479693 36.0822611,7.60550445 36.0970001,7.63699403 C36.0970001,7.64799402 36.1100001,7.65599402 36.1140001,7.66699401 C36.3962039,8.46664488 37.1520132,9.00140735 38,9.00140735 C38.8479868,9.00140735 39.6037961,8.46664488 39.8859999,7.66699401 C39.8859999,7.65599402 39.8979999,7.64799402 39.9029999,7.63699403 C39.9177389,7.60550445 39.934094,7.57479693 39.9519999,7.54499412 C39.989745,7.47036313 40.0367856,7.40081034 40.0919999,7.3379943 C40.1183428,7.30867016 40.1467485,7.28126699 40.1769999,7.25599438 C40.2376104,7.20261544 40.3048272,7.15724413 40.3769999,7.1209945 C40.4093922,7.10250861 40.4427758,7.08581679 40.4769999,7.07099454 C40.5890307,7.02609013 40.708322,7.00202855 40.8289999,6.99999461 L43.6129998,6.99999461 L42.2789999,2.9999982 Z" id="tab-inbox-icon"></path>
                </g>
            </g>
        </g>
    </g>
</svg>