<?xml version="1.0" encoding="UTF-8"?>
<svg width="16px" height="16px" viewBox="0 0 16 16" version="1.1" xmlns="http://www.w3.org/2000/svg" xmlns:xlink="http://www.w3.org/1999/xlink">
    <!-- Generator: Sketch 41.2 (35397) - http://www.bohemiancoding.com/sketch -->
    <title>tab-reload-icon</title>
    <desc>Created with Sketch.</desc>
    <defs></defs>
    <g id="AppStarter" stroke="none" stroke-width="1" fill="none" fill-rule="evenodd">
        <g id="Webflow-Assets" transform="translate(-451.000000, -2603.000000)" fill="#F8F9FA">
            <g id="Icons" transform="translate(235.000000, 2582.000000)">
                <g id="Tab-Icons" transform="translate(216.000000, 21.000000)">
                    <path d="M10.6419116,6 C10.2730342,6 10.1818262,5.79303516 10.4515913,5.52438808 L12.226,3.75733333 C11.1353333,2.672 9.62933333,2 7.96466667,2 C4.89733333,2 2.36666667,4.28266667 1.98933333,7.23466667 C1.98933333,7.23466667 1.874,8 1.004,8 C0.45,8 0.000666666667,7.552 0.000666666667,7 C0.000666666667,6.92466667 0.00933333333,6.85133333 0.0253333333,6.78 C0.616,2.94133333 3.944,0 7.96466667,0 C10.184,0 12.1926667,0.895333333 13.6466667,2.34333333 L15.5237679,0.474208466 C15.7867836,0.212310362 16,0.289392471 16,0.665029764 L16,5.66022277 C16,5.84787655 15.8510419,6 15.6760161,6 L10.6419116,6 Z M5.35808844,10 C5.72696581,10 5.81817383,10.2069648 5.54840872,10.4756119 L3.774,12.2426667 C4.864,13.3286667 6.37066667,14 8.03533333,14 C11.1026667,14 13.6333333,11.7173333 14.0106667,8.76533333 C14.0106667,8.76533333 14.126,8 14.996,8 C15.55,8 15.9993333,8.448 15.9993333,9 C15.9993333,9.076 15.9906667,9.14933333 15.9746667,9.22 C15.384,13.0586667 12.056,16 8.03533333,16 C5.816,16 3.80733333,15.1046667 2.35333333,13.6573333 L0.476232115,15.5259264 C0.213216381,15.78775 0,15.7106075 0,15.3349702 L0,10.3397772 C0,10.1521234 0.14895813,10 0.323983932,10 L5.35808844,10 Z" id="Reload-Icon"></path>
                </g>
            </g>
        </g>
    </g>
</svg>