<?xml version="1.0" encoding="UTF-8"?>
<svg width="16px" height="16px" viewBox="0 0 16 16" version="1.1" xmlns="http://www.w3.org/2000/svg" xmlns:xlink="http://www.w3.org/1999/xlink">
    <!-- Generator: Sketch 41.2 (35397) - http://www.bohemiancoding.com/sketch -->
    <title>tab-desktop-icon</title>
    <desc>Created with Sketch.</desc>
    <defs></defs>
    <g id="Webflow-Assets" stroke="none" stroke-width="1" fill="none" fill-rule="evenodd">
        <g id="Assets" transform="translate(-691.000000, -473.000000)" fill="#FFFFFF">
            <g id="Dark-BG" transform="translate(235.000000, 422.000000)">
                <g id="Tab-Icons" transform="translate(426.000000, 21.000000)">
                    <path d="M43.994,43.0000123 L39.004,43.0000123 C39.0039867,43.2669705 39.1107151,43.5228517 39.3004199,43.7106782 C39.4901246,43.8985047 39.7470551,44.0026819 40.014,44.0000123 L41.994,44.0000123 C42.3512656,43.9982259 42.6823456,44.1871742 42.8625254,44.4956821 C43.0427052,44.8041901 43.0446112,45.1853879 42.8675254,45.4956821 C42.6904396,45.8059764 42.3612656,45.9982259 42.004,46.0000123 L34.004,46.0000123 C33.4517153,46.0000123 33.004,45.552297 33.004,45.0000123 C33.0072761,44.4490902 33.453078,44.0032884 34.004,44.0000123 L35.97,44.0000123 C36.2369449,44.0026819 36.4938754,43.8985047 36.6835801,43.7106782 C36.8732849,43.5228517 36.9800133,43.2669705 36.98,43.0000123 L32.007,43.0000123 C30.9015191,42.9994705 30.0044042,42.1054845 30,41.0000123 L30,33.0000123 C29.9999967,32.4683642 30.2116711,31.9585927 30.5882591,31.5833181 C30.9648472,31.2080434 31.4753552,30.9981515 32.007,31.0000123 L43.99,31.0000123 C45.0971051,30.9977997 45.9966908,31.8929099 46,33.0000123 L46,41.0100123 C45.9944899,42.1130195 45.097016,43.0033351 43.994,43.0000123 L43.994,43.0000123 L43.994,43.0000123 Z M43.994,33.0000123 L32.004,33.0000123 C32.004,33.0000123 32.01,41.0000123 32.011,41.0000123 L44.004,41.0000123 L43.994,33.0000123 L43.994,33.0000123 Z" id="Monitor-Icon"></path>
                </g>
            </g>
        </g>
    </g>
</svg>