<?xml version="1.0" encoding="UTF-8"?>
<svg width="16px" height="16px" viewBox="0 0 16 16" version="1.1" xmlns="http://www.w3.org/2000/svg" xmlns:xlink="http://www.w3.org/1999/xlink">
    <!-- Generator: Sketch 41.2 (35397) - http://www.bohemiancoding.com/sketch -->
    <title>tab-smartphone-icon</title>
    <desc>Created with Sketch.</desc>
    <defs></defs>
    <g id="Webflow-Assets" stroke="none" stroke-width="1" fill="none" fill-rule="evenodd">
        <g id="Assets" transform="translate(-661.000000, -473.000000)" fill="#FFFFFF">
            <g id="Dark-BG" transform="translate(235.000000, 422.000000)">
                <g id="Tab-Icons" transform="translate(426.000000, 21.000000)">
                    <path d="M11,46 L5,46 C3.8954305,46 3,45.1045695 3,44 L3,32 C3,30.8954305 3.8954305,30 5,30 L11,30 C12.1045695,30 13,30.8954305 13,32 L13,44 C13,45.1045695 12.1045695,46 11,46 L11,46 L11,46 Z M11,33 L5,33 L5,43 L11,43 L11,33 L11,33 L11,33 Z" id="Smarphone-Icon"></path>
                </g>
            </g>
        </g>
    </g>
</svg>