<?xml version="1.0" encoding="UTF-8"?>
<svg width="16px" height="16px" viewBox="0 0 16 16" version="1.1" xmlns="http://www.w3.org/2000/svg" xmlns:xlink="http://www.w3.org/1999/xlink">
    <!-- Generator: Sketch 41.2 (35397) - http://www.bohemiancoding.com/sketch -->
    <title>twitter-icon</title>
    <desc>Created with Sketch.</desc>
    <defs></defs>
    <g id="AppStarter" stroke="none" stroke-width="1" fill="none" fill-rule="evenodd">
        <g id="Webflow-Assets" transform="translate(-245.000000, -374.000000)" fill="#282B31">
            <g id="Icons" transform="translate(235.000000, 363.000000)">
                <g id="Social" transform="translate(10.000000, 11.000000)">
                    <path d="M14.3709819,5.64658731 C14.3709819,9.9732664 11.0695852,14.9606061 5.03181155,14.9606061 C3.24242034,14.9596647 1.49272756,14.448405 0,13.4903124 C0.259846582,13.518555 0.521027325,13.5336884 0.782489056,13.5356519 C2.2674723,13.5356782 3.70720254,13.0393654 4.85970398,12.1301289 C3.4403253,12.0961897 2.20333729,11.1823424 1.79111945,9.8631563 C1.99499685,9.90228904 2.20235045,9.92181462 2.41017302,9.92144988 C2.70345657,9.92245969 2.99541463,9.88320897 3.2773817,9.80486272 C1.72727965,9.47785811 0.626796602,8.13883084 0.642401501,6.59871579 C1.09833714,6.80808485 1.60834863,6.94792082 2.130665,6.96790847 C0.683351793,5.98180955 0.243704201,4.08987316 1.11469669,2.59588993 C2.75676568,4.62943133 5.22280157,5.87597549 7.88025849,6.01577999 C7.82369552,5.77130504 7.79528136,5.52148521 7.79553888,5.27091757 C7.77180644,3.4875244 9.24151188,2.02310229 11.0782572,2 C11.9903026,2.00041523 12.8598576,2.37435162 13.4730873,3.02985326 C14.2111204,2.88847579 14.9174175,2.62091818 15.5590577,2.23965139 C15.3188954,2.99213487 14.8054286,3.63431375 14.1141547,4.04675238 C14.7660492,3.97097044 15.4020835,3.79839468 16,3.53506429 C15.5616715,4.18819968 15.0073959,4.76058658 14.3629769,5.22557812 C14.3689806,5.36807354 14.3709819,5.51056896 14.3709819,5.64658731 Z" id="twitter-icon"></path>
                </g>
            </g>
        </g>
    </g>
</svg>